# xmcd
#
# Track frame offsets:
#	150
#	12970
#	30292
#
# Disc length: 648 seconds
#
# Revision: 0
# Processed by: cddbd v1.5.2PL0 Copyright (c) Steve Scherf et al.
# Submitted via: audiograbber 1.83.01
#
DISCID=13028603
DTITLE=Ässät - Beduiinin Sandaali
DYEAR=1995
DGENRE=Pop
TTITLE0=Beduiinin Sandaali
TTITLE1=Tulinen Tyttö
TTITLE2=Viimeinen Ilta
EXTD=TR.
EXTT0=
EXTT1=
EXTT2=
PLAYORDER=
